<svg width="63" height="63" viewBox="0 0 63 63" fill="none" xmlns="http://www.w3.org/2000/svg">
<g clip-path="url(#clip0_101_31080)">
<path d="M24.5 44.7601C25.88 37.1301 27.27 29.5001 28.65 21.8801L24.47 22.9801C30.9 27.9801 37.53 32.7301 44.36 37.1601V32.8401C41.16 35.3101 37.44 36.9801 34.23 39.4501C33.21 40.2301 32.5 41.6401 33.33 42.8701C36.14 47.0601 38.82 51.3301 41.64 55.5201C43.42 58.1801 47.76 55.6801 45.96 53.0001C43.15 48.8101 40.47 44.5401 37.65 40.3501L36.75 43.7701C39.95 41.3001 43.67 39.6301 46.88 37.1601C48.37 36.0101 48.59 33.9501 46.88 32.8401C40.4 28.6401 34.09 24.1801 28 19.4401C26.68 18.4101 24.2 18.4801 23.82 20.5401L19.67 43.4201C19.43 44.7501 20.03 46.1201 21.42 46.5001C22.63 46.8301 24.25 46.0901 24.5 44.7501V44.7601Z" fill="black"/>
<path d="M32.6401 16.0901L34.3101 10.8301Z" fill="white"/>
<path d="M35.05 16.7503L36.72 11.4903C36.91 10.8903 36.78 10.1003 36.47 9.56031C36.16 9.02031 35.57 8.55031 34.98 8.41031C33.62 8.10031 32.33 8.82031 31.9 10.1603C31.34 11.9103 30.79 13.6703 30.23 15.4203C30.04 16.0203 30.17 16.8103 30.48 17.3503C30.79 17.8903 31.38 18.3603 31.97 18.5003C33.33 18.8103 34.62 18.0903 35.05 16.7503Z" fill="black"/>
<path d="M17.78 23.1396L12.5 21.5596Z" fill="white"/>
<path d="M18.4399 20.7298L13.1599 19.1498C12.5499 18.9698 11.7799 19.0798 11.2299 19.3998C10.7099 19.6998 10.2199 20.2998 10.0799 20.8898C9.92991 21.5298 9.96991 22.2498 10.3299 22.8198C10.6899 23.3898 11.1799 23.7798 11.8199 23.9698L17.0999 25.5498C17.7099 25.7298 18.4799 25.6198 19.0299 25.2998C19.5499 24.9998 20.0399 24.3998 20.1799 23.8098C20.3299 23.1698 20.2899 22.4498 19.9299 21.8798C19.5699 21.3098 19.0799 20.9198 18.4399 20.7298Z" fill="black"/>
<path d="M22.9998 15.31L20.2998 10.5Z" fill="white"/>
<path d="M25.1599 14.0405L22.4599 9.23045C22.1599 8.69045 21.5599 8.25045 20.9699 8.08045C20.3799 7.91045 19.5699 7.99045 19.0399 8.33045C18.5099 8.67045 18.0399 9.19045 17.8899 9.82045C17.7399 10.4505 17.7999 11.1405 18.1399 11.7505C19.0399 13.3505 19.9399 14.9605 20.8399 16.5605C21.1399 17.1005 21.7399 17.5405 22.3299 17.7105C22.9199 17.8805 23.7299 17.8005 24.2599 17.4605C24.7899 17.1205 25.2599 16.6005 25.4099 15.9705C25.5599 15.3405 25.4999 14.6505 25.1599 14.0405Z" fill="black"/>
</g>
<defs>
<clipPath id="clip0_101_31080">
<rect width="38.09" height="48.66" fill="white" transform="translate(10 8)"/>
</clipPath>
</defs>
</svg>
